# xmcd
#
# Track frame offsets:
#	150
#	11809
#	20715
#	36264
#	54219
#	64308
#	79892
#	101490
#	119893
#	137380
#	150965
#	167021
#	180959
#	199506
#	220672
#	233529
#	243625
#
# Disc length: 3498 seconds
#
# Revision: 1
# Processed by: cddbd v1.4PL0 Copyright (c) Steve Scherf et al.
# Submitted via: audiograbber 1.80.04
#
DISCID=da0da811
DTITLE=The Casters - 24 Tunes
DYEAR=1900
DGENRE=Blues
TTITLE0=I Can't stop it
TTITLE1=French fried potatoes and ketchup
TTITLE2=Is you is or is you ain't my baby
TTITLE3=Hard times
TTITLE4=Down boy down
TTITLE5=You stil drive me crazy
TTITLE6=Leave me alone
TTITLE7=Wrong time for a shout
TTITLE8=It's only a papermoon
TTITLE9=Hound dog
TTITLE10=Choo choo ch'boogie
TTITLE11=Sticky
TTITLE12=Rocket 88
TTITLE13=Blue monday
TTITLE14=Cat scratchin'
TTITLE15=Todd talks
TTITLE16=Hound dog (Live version)
EXTD=
EXTT0=
EXTT1=
EXTT2=
EXTT3=
EXTT4=
EXTT5=
EXTT6=
EXTT7=
EXTT8=
EXTT9=
EXTT10=
EXTT11=
EXTT12=
EXTT13=
EXTT14=
EXTT15=
EXTT16=
PLAYORDER=
